<svg xmlns="http://www.w3.org/2000/svg" xmlns:xlink="http://www.w3.org/1999/xlink" width="529.226" height="399.536" viewBox="0 0 529.226 399.536">
  <defs>
    <linearGradient id="linear-gradient" x1="0.5" y1="1" x2="0.5" gradientUnits="objectBoundingBox">
      <stop offset="0" stop-color="gray" stop-opacity="0.251"/>
      <stop offset="0.54" stop-color="gray" stop-opacity="0.122"/>
      <stop offset="1" stop-color="gray" stop-opacity="0.102"/>
    </linearGradient>
    <linearGradient id="linear-gradient-2" x1="0.5" x2="0.5" xlink:href="#linear-gradient"/>
    <linearGradient id="linear-gradient-3" x1="0.453" y1="1.001" x2="0.532" y2="-0.011" xlink:href="#linear-gradient"/>
  </defs>
  <g id="undraw_content_vbqo" transform="translate(0 -0.427)">
    <ellipse id="Oval" cx="46.347" cy="11.449" rx="46.347" ry="11.449" transform="translate(427.611 375.157)" fill="#ffab2b" opacity="0.1"/>
    <ellipse id="Oval-2" data-name="Oval" cx="46.347" cy="11.449" rx="46.347" ry="11.449" transform="translate(18.486 377.065)" fill="#ffab2b" opacity="0.1"/>
    <path id="Path" d="M123.356,103.227s-6.514-2.644-27.227,6.861-23.315,8.292-28.667,6.838-8.333-1.8-14.1-9.722c0,0-4.056-21.981-7.977-25.389s-20.6,1.94-20.6,1.94S4.787,88.343.977,61.62c0,0,2.7-20.144-.977-26.324,0,0,7.407,3.208,19.694-1.968s22.079,5.556,22.079,5.556,3.093,8.009,2.778,12.782,1.634,6.565,7.486,4.259c0,0,2.87-4.088-1.2-10.843S43.866,33.292,45,28.046s4.4-12.5,14.889-16.157S84.634,7.546,91.477,4.7s8.5-4.7,8.5-4.7-4.218,4.231,5.713,22.106,3.6,25.639,3.6,25.639S104,60.319,80.718,59.319c0,0-22.44.819-10.185,10.338,0,0,7.838-1.6,19.551-5.319s20.171,11.644,22.269,22.338S123.356,103.227,123.356,103.227Z" transform="translate(193.653 5.046)" fill="#ffab2b"/>
    <path id="Path-2" data-name="Path" d="M17.681.032,17.806,0C18.7,3.412,8.671,17.13.1,28.023L0,27.944C12.1,12.569,18.38,2.657,17.681.032Z" transform="translate(269.157 18.583)" fill="#444053"/>
    <path id="Path-3" data-name="Path" d="M24.435,0l.051.139C17.639,8.847,9.028,19.236,2.134,26.931c-.657.736-1.31,1.5-1.94,2.292L0,29.06c.63-.787,1.287-1.56,1.944-2.315C8.833,19.074,17.593,8.7,24.435,0Z" transform="translate(244.903 46.301)" fill="#444053"/>
    <path id="Path-4" data-name="Path" d="M15.94,0l.134.231C3.528,15.894,2.7,40.213,2.648,40.426L0,37.37C.056,37.157,3.306,15.769,15.94,0Z" transform="translate(229.13 75.157)" fill="#444053"/>
    <path id="Path-5" data-name="Path" d="M97.639,51.333S82.824,43.644,71.319,46.4s-37.5-9.75-37.5-9.75S22.8,32.171,20.583,27.069c0,0-7.56-7.991-7.991-12.13S4.8.4,0,0" transform="translate(204.819 48.444)" fill="none" stroke="#444053" stroke-miterlimit="10" stroke-width="1"/>
    <path id="Path-6" data-name="Path" d="M6.655,10.866S-.808,5.847.072,0" transform="translate(293.664 96.315)" fill="none" stroke="#444053" stroke-miterlimit="10" stroke-width="1"/>
    <path id="Path-7" data-name="Path" d="M11.722,19.032S1.074,15.162,0,0" transform="translate(277.167 94.634)" fill="none" stroke="#444053" stroke-miterlimit="10" stroke-width="1"/>
    <path id="Path-8" data-name="Path" d="M7.49,23.208A23.836,23.836,0,0,1,.689,0" transform="translate(264.209 94.384)" fill="none" stroke="#444053" stroke-miterlimit="10" stroke-width="1"/>
    <path id="Path-9" data-name="Path" d="M3.25,23.468S-3.533,9.25,2.5,0" transform="translate(247.792 89.995)" fill="none" stroke="#444053" stroke-miterlimit="10" stroke-width="1"/>
    <path id="Path-10" data-name="Path" d="M6.288,0S-1.42,2.444.232,6.481" transform="translate(296.346 90.407)" fill="none" stroke="#444053" stroke-miterlimit="10" stroke-width="1"/>
    <path id="Path-11" data-name="Path" d="M10.556,0S.245,3.273,0,17.856" transform="translate(282.764 76.421)" fill="none" stroke="#444053" stroke-miterlimit="10" stroke-width="1"/>
    <path id="Path-12" data-name="Path" d="M8.726,0S-.654,11.574.036,22.106" transform="translate(270.242 73.056)" fill="none" stroke="#444053" stroke-miterlimit="10" stroke-width="1"/>
    <path id="Path-13" data-name="Path" d="M8.235,0S-1.085,8.907.1,13.866" transform="translate(254.289 77.597)" fill="none" stroke="#444053" stroke-miterlimit="10" stroke-width="1"/>
    <path id="Path-14" data-name="Path" d="M9.963,1.3S1.222,2.87,0,0" transform="translate(246.94 73.148)" fill="none" stroke="#444053" stroke-miterlimit="10" stroke-width="1"/>
    <path id="Path-15" data-name="Path" d="M0,0S4.417,5.847,5.556,4.537" transform="translate(245.546 63.898)" fill="none" stroke="#444053" stroke-miterlimit="10" stroke-width="1"/>
    <path id="Path-16" data-name="Path" d="M27.019,5.042S4.991,6.63,0,0" transform="translate(262.301 55.157)" fill="none" stroke="#444053" stroke-miterlimit="10" stroke-width="1"/>
    <path id="Path-17" data-name="Path" d="M0,0S10.338,22.19,17.843,25" transform="translate(240.912 34.431)" fill="none" stroke="#444053" stroke-miterlimit="10" stroke-width="1"/>
    <path id="Path-18" data-name="Path" d="M0,0S6.352,20.412,14.218,26.782" transform="translate(251.755 23.861)" fill="none" stroke="#444053" stroke-miterlimit="10" stroke-width="1"/>
    <path id="Path-19" data-name="Path" d="M26.815.083S10.06,7.273,0,0" transform="translate(271.778 43.273)" fill="none" stroke="#444053" stroke-miterlimit="10" stroke-width="0.75"/>
    <path id="Path-20" data-name="Path" d="M0,0S3.829,15,8.986,18.63" transform="translate(266.681 19.509)" fill="none" stroke="#444053" stroke-miterlimit="10" stroke-width="0.75"/>
    <path id="Path-21" data-name="Path" d="M12.931,0S3.519,3.565,0,.833" transform="translate(283.13 26.551)" fill="none" stroke="#444053" stroke-miterlimit="10" stroke-width="0.75"/>
    <path id="Path-22" data-name="Path" d="M3.56,0S3.56,13.079,0,14.009" transform="translate(233.921 68.801)" fill="none" stroke="#444053" stroke-miterlimit="10" stroke-width="1"/>
    <path id="Path-23" data-name="Path" d="M0,6.083S14.139,7.3,20.662,0" transform="translate(208.375 79.662)" fill="none" stroke="#444053" stroke-miterlimit="10" stroke-width="1"/>
    <path id="Path-24" data-name="Path" d="M12.861,0S9.44,13.264,0,16.838" transform="translate(220.972 53.352)" fill="none" stroke="#444053" stroke-miterlimit="10" stroke-width="1"/>
    <path id="Path-25" data-name="Path" d="M0,5.38S10.009,8.861,18.616,0" transform="translate(199.894 66.394)" fill="none" stroke="#444053" stroke-miterlimit="10" stroke-width="1"/>
    <path id="Path-26" data-name="Path" d="M7.069,0S6.144,11.264,0,16.537" transform="translate(215.634 41.949)" fill="none" stroke="#444053" stroke-miterlimit="10" stroke-width="1"/>
    <path id="Path-27" data-name="Path" d="M0,2.648S8.306,2.708,10.25,0" transform="translate(200.264 51.958)" fill="none" stroke="#444053" stroke-miterlimit="10" stroke-width="1"/>
    <path id="Path-28" data-name="Path" d="M270.622,63.675c-33.056,5.514-66.162,2.546-98.032-1.565S108.923,52.749,75.8,53.776c-21.3.667-44.986,4.852-59.722,17.694C1.9,83.827-.128,100.721.006,116c.1,11.491,1.181,23.394,8.963,32.634,5.4,6.412,13.662,11.069,19.907,17,21.759,20.639,15.588,52.611,1.81,79.685-6.481,12.7-14.4,25.171-18.75,38.194s-4.778,27.051,3.407,37.833c8.12,10.69,23.653,16.847,39.815,20.148,32.819,6.7,69.245,3.241,104.477-1.569,77.981-10.7,155.093-28,231.981-45.278,28.458-6.389,57.042-12.815,84.421-22.222,15.2-5.213,30.671-11.773,40.407-22.148,12.357-13.171,12.468-31.352.259-42.38-20.482-18.519-66.3-15.037-82.222-36.111-8.769-11.574-5.2-27.139,1.5-40.819,14.352-29.352,42.477-58.171,38.426-87.667-2.778-20.259-22.4-37.222-48.463-41.912-27.315-4.912-62.227,3.292-77.676,23.435C332.362,45.619,299.807,58.813,270.622,63.675Z" transform="translate(3.438 0.427)" fill="#ffab2b" opacity="0.1"/>
    <rect id="Rectangle" width="439.968" height="249.227" rx="12.49" transform="translate(35.319 69.958)" fill="url(#linear-gradient)"/>
    <rect id="Rectangle-2" data-name="Rectangle" width="438.62" height="244.894" rx="12.49" transform="translate(36.019 73.463)" fill="#fff"/>
    <rect id="Rectangle-3" data-name="Rectangle" width="438.62" height="244.894" rx="12.49" transform="translate(36.019 73.463)" fill="#fff"/>
    <rect id="Rectangle-4" data-name="Rectangle" width="438.62" height="244.894" rx="12.49" transform="translate(36.019 73.463)" fill="#5a5773" opacity="0.04"/>
    <path id="Path-29" data-name="Path" d="M436.412,0H2.227A2.227,2.227,0,0,0,0,2.227v9.417H438.62v-9.4A2.227,2.227,0,0,0,436.412,0Z" transform="translate(36 70.653)" fill="#5a5773"/>
    <g id="_83eb5f8b-b68b-4721-b047-6100bc74156f" data-name="83eb5f8b-b68b-4721-b047-6100bc74156f" transform="translate(41.667 73.148)">
      <circle id="Oval-3" data-name="Oval" cx="3.009" cy="3.009" r="3.009" transform="translate(0.102 0.315)" fill="#fff"/>
      <circle id="Oval-4" data-name="Oval" cx="3.009" cy="3.009" r="3.009" transform="translate(8.204 0.315)" fill="#fff"/>
      <circle id="Oval-5" data-name="Oval" cx="3.009" cy="3.009" r="3.009" transform="translate(16.306 0.315)" fill="#fff"/>
    </g>
    <rect id="Rectangle-5" data-name="Rectangle" width="365.741" height="181.843" rx="10.19" transform="translate(65.38 136.509)" fill="#fff"/>
    <rect id="Rectangle-6" data-name="Rectangle" width="105.204" height="11.042" rx="3.86" transform="translate(49.87 94.653)" fill="#5a5773" opacity="0.2"/>
    <rect id="Rectangle-7" data-name="Rectangle" width="105.204" height="11.042" rx="3.86" transform="translate(248.25 157.616)" fill="#ffab2b" opacity="0.2"/>
    <rect id="Rectangle-8" data-name="Rectangle" width="164.273" height="11.042" rx="3.86" transform="translate(248.25 188.532)" fill="#ffab2b" opacity="0.2"/>
    <rect id="Rectangle-9" data-name="Rectangle" width="164.273" height="11.042" rx="3.86" transform="translate(248.25 206.588)" fill="#ffab2b" opacity="0.2"/>
    <rect id="Rectangle-10" data-name="Rectangle" width="164.273" height="11.042" rx="3.86" transform="translate(248.25 224.644)" fill="#ffab2b" opacity="0.2"/>
    <rect id="Rectangle-11" data-name="Rectangle" width="164.273" height="11.042" rx="3.86" transform="translate(248.25 242.699)" fill="#ffab2b" opacity="0.2"/>
    <rect id="Rectangle-12" data-name="Rectangle" width="327.315" height="11.042" rx="3.86" transform="translate(85.208 262.606)" fill="#ffab2b" opacity="0.2"/>
    <rect id="Rectangle-13" data-name="Rectangle" width="327.315" height="11.042" rx="3.86" transform="translate(85.208 280.662)" fill="#ffab2b" opacity="0.2"/>
    <rect id="Rectangle-14" data-name="Rectangle" width="327.315" height="11.042" rx="3.86" transform="translate(85.208 298.718)" fill="#ffab2b" opacity="0.2"/>
    <path id="Path-30" data-name="Path" d="M7.552,0S10.3,3.588,6.284,9.009-1.036,19,.3,22.384c0,0,6.051-10.065,10.981-10.185S12.973,6.051,7.552,0Z" transform="translate(330.087 306.019)" fill="#ffab2b"/>
    <path id="Path-31" data-name="Path" d="M7.4,0a4.444,4.444,0,0,1,.56,1.125c4.81,5.648,7.37,10.921,2.75,11.051C6.4,12.3,1.236,20,0,21.94a3.574,3.574,0,0,0,.148.463S6.2,12.338,11.13,12.218,12.819,6.051,7.4,0Z" transform="translate(330.241 306.019)" opacity="0.1"/>
    <path id="Path-32" data-name="Path" d="M.63.808C.63,2.072.491,3.095.315,3.095S0,2.072,0,.808.176.141.352.141.63-.456.63.808Z" transform="translate(342.111 309.785)" fill="#ffd037"/>
    <path id="Path-33" data-name="Path" d="M2.168.891c-1.111.6-2.079.968-2.162.815S.756.937,1.858.317s.671-.167.755,0S3.274.284,2.168.891Z" transform="translate(342.328 311.211)" fill="#ffd037"/>
    <path id="Path-34" data-name="Path" d="M6.161,0S3.415,3.588,7.425,9.009s7.324,10,5.986,13.375c0,0-6.056-10.065-10.981-10.185S.739,6.051,6.161,0Z" transform="translate(316.978 306.019)" fill="#ffab2b"/>
    <path id="Path-35" data-name="Path" d="M6.161,0A4.347,4.347,0,0,0,5.6,1.125C.79,6.773-1.77,12.046,2.851,12.176c4.306.125,9.468,7.824,10.7,9.764a3.556,3.556,0,0,1-.144.463S7.355,12.338,2.429,12.218.739,6.051,6.161,0Z" transform="translate(316.978 306.019)" opacity="0.1"/>
    <path id="Path-36" data-name="Path" d="M0,.8C0,2.067.144,3.09.319,3.09S.634,2.067.634.8.458.145.287.145,0-.461,0,.8Z" transform="translate(318.032 309.79)" fill="#ffd037"/>
    <path id="Path-37" data-name="Path" d="M.672.891c1.111.6,2.079.968,2.162.815S2.084.937.982.317.31.15.227.317-.44.284.672.891Z" transform="translate(315.611 311.211)" fill="#ffd037"/>
    <ellipse id="Oval-6" data-name="Oval" cx="28.704" cy="4.403" rx="28.704" ry="4.403" transform="translate(301.685 347.056)" fill="#ffab2b" opacity="0.1"/>
    <path id="Path-38" data-name="Path" d="M29.566,1.662l-.139,1.12-.19,1.583-.083.662-.19,1.583-.083.662-.194,1.579L26.492,26.861c-.2,1.606-2.824,2.861-6.019,2.861H9.075c-3.171,0-5.792-1.255-5.986-2.861l-2.2-18L.7,7.287.612,6.625.418,5.042.339,4.38.145,2.8.006,1.676C-.1.75,1.32,0,3.112,0H26.455C28.246-.014,29.668.75,29.566,1.662Z" transform="translate(315.605 321.903)" fill="#65617d"/>
    <path id="Path-39" data-name="Path" d="M29.273,0l-.19,1.583H.194L0,0Z" transform="translate(315.75 324.685)" fill="#9d9cb5"/>
    <path id="Path-40" data-name="Path" d="M28.727,0l-.19,1.583H.194L0,0Z" transform="translate(316.023 326.926)" fill="#9d9cb5"/>
    <path id="Path-41" data-name="Path" d="M28.176,0l-.194,1.583H.19L0,0Z" transform="translate(316.301 329.171)" fill="#9d9cb5"/>
    <rect id="Rectangle-15" data-name="Rectangle" width="139.815" height="102.565" rx="8.5" transform="translate(85.208 151.491)" fill="#ffab2b" opacity="0.2"/>
    <path id="Shape" d="M51.95,179.445a3.584,3.584,0,0,1-2.772-.864,1.41,1.41,0,0,1-.4-.864c0-.021.02-.26.051-.616.039-.479.241-2.89.384-3.356a15.167,15.167,0,0,0-.13-3.023l-.051-2.574v-.514l-.723.153a41.684,41.684,0,0,1-1.916-4.631,2.393,2.393,0,0,1,1.741-3.147.3.3,0,0,0,.273-.181c.152-.447-.914-1.54-.925-1.551s.172-.227-.259-1.769c-.42-1.5.048-5.22.2-6.442l.015-.123c.117-.933.669-5.172.779-6.013l0-.033c-.014-.259-.346-6.352-.088-6.606.289-.284,1.124-2.778.7-3.584-.447-.845-1.135-6.258-1.135-6.523,0-.284-.506-6.572-.564-7.288v-.008c0-.049-.411-4.882-.3-5.912a42.548,42.548,0,0,0-.352-4.879,16.776,16.776,0,0,0-1.852-6.653l-.046.125-4.042,10.546c-.027.131-.666,3.236-1.218,5a33.759,33.759,0,0,0-.852,3.75l-.037.231a.644.644,0,0,0-.037.246l-.028.171c.012.094.3,2.307-.171,3.023a10.393,10.393,0,0,0-1,3.537c0,.614.041,2.917.041,2.94,0,.046.153,4.624-.305,5.139a.807.807,0,0,0-.218.949c.008.035.776,3.517.435,4.407a9.043,9.043,0,0,0-.083,3.019v.009c-.071.686-.695,6.71-.782,7.033-.061.228-.589,3.02-.046,3.241a6.844,6.844,0,0,1,1.518,1.509c.009.233.2,5.666-.56,6.088-.776.431-.356,2.612-.352,2.634l-.334.065c.03.148.061.311.091.468l.006.032a5.547,5.547,0,0,1,.153,1.555,1.393,1.393,0,0,0,.306,1.075l.19,1.768.069.611h0l0,0c-.327.211-3.251,2.059-5.076,2.059a2.191,2.191,0,0,1-.4-.035,4.617,4.617,0,0,0-.849-.076,7.047,7.047,0,0,0-2.855.683,11.062,11.062,0,0,1-4.63,2.976,13.339,13.339,0,0,1-4.17.6,17.789,17.789,0,0,1-5.265-.766c-.583-.192-.9-.415-.971-.684-.055-.213.046-.456.309-.742a17.256,17.256,0,0,1,3.42-2.309l.113-.066a34.074,34.074,0,0,0,6.217-5.269,1.881,1.881,0,0,1,.565-1.25,6.5,6.5,0,0,0,.879-.926l.25-.3-.306-.041.434-1.416c-.014.022-.057.084-.115.084-.113,0-.274-.233-.4-1.346a1.217,1.217,0,0,1,.171-.967.7.7,0,0,1,.554-.215,2.33,2.33,0,0,1,.887.228.82.82,0,0,0,.17.019c.093,0,.212-.021.252-.119.071-.174-.1-.627-1.3-1.8a3.85,3.85,0,0,1-1.219-4.242c.074-.182.148-.291.177-.291a23.924,23.924,0,0,0,.436-3.325,10.934,10.934,0,0,0,.088-3.542c-.3-1.531-.563-6.345-.565-6.394a23.668,23.668,0,0,0-.176-5.009,9.91,9.91,0,0,1,.35-4.138l0-.017c.016-.065.029-.12.039-.164.129-.557-.388-5.648-.393-5.7a15.913,15.913,0,0,0,.176-4.166,71.2,71.2,0,0,1,.259-8.292l.782-7.514a16.313,16.313,0,0,0,.464-3.282,27.132,27.132,0,0,1,.652-4.273,4.753,4.753,0,0,1,.347-2.074,5.151,5.151,0,0,0,.352-1.343,7.559,7.559,0,0,1-2-2.588c-.171-.3-.264-.5-.265-.5l.7-2.936c0-.04.033-4.069.463-4.837a12.465,12.465,0,0,0,.694-3.023c.008-.049.789-4.969.926-6.019a1.29,1.29,0,0,0-.463,0l.111-.541a1.274,1.274,0,0,0-.37,0,.53.53,0,0,1,.011-.059c.319-1.573,1.958-9.515,2.859-11.428.987-2.093.826-7.845.824-7.9-.018.006-1.956.613-2.042,1.12a36.02,36.02,0,0,1-2.611,4.019,6.315,6.315,0,0,1-3.172,3.5,4.622,4.622,0,0,1-2.189.531,5.718,5.718,0,0,1-3.728-1.35c-.42-.546-9.143-4.344-9.514-4.505l-.268-.115V59.4l-.283-.125.292.093c.058-.281.139-.6.24-.954v-.084l.042-.139c.022-.075.045-.156.074-.241a.536.536,0,0,1,.023-.083l.083-.25v-.041a12.88,12.88,0,0,1,.463-1.287L6.773,54.857l-.134-.1L1.436,49.9a4.537,4.537,0,0,1,.032-6.653.519.519,0,0,1,.34-.175c.263,0,.4.375.45.517.009.025.016.043.02.052,3.2.407,8.741,5.564,8.8,5.616l.685.76.255.282a1.039,1.039,0,0,0-.069-.694c-.013-.018-.019-.03-.017-.033h0a10.133,10.133,0,0,1,.927.815c.2.182.382.353.525.482V50.9c.147.134.24.226.24.227.773,1.364,4.183,2.149,4.217,2.157l1.481-.925c.128-1.661,2.5-3.652,2.524-3.672a5.9,5.9,0,0,0,1.084-2.458,1.7,1.7,0,0,1,1.691-1.477,1.2,1.2,0,0,1,.16.009L24.95,42.3a2.253,2.253,0,0,0,1.175-2.075c-.132-1.361,1.373-4.033,1.389-4.06.007,0,.7-.3.824-2.977.128-2.693,1.422-2.892,1.436-2.894l3.7-.218c.3-1.025,8.143-2.274,8.222-2.287a4.916,4.916,0,0,0,2.129-1.643,1.451,1.451,0,0,1,1.186-.8.84.84,0,0,1,.337.065l.116.112-.028-.237c0-.027-.009-.055-.014-.082a1.127,1.127,0,0,1-.023-.2,10.269,10.269,0,0,1-5.709-9.185v-.412a5.03,5.03,0,0,1-.879.319l-.222.056a3.433,3.433,0,0,1-.692.07c-.066,0-.132,0-.2-.006-.035,0-.072,0-.108,0s-.073,0-.108,0a2.6,2.6,0,0,1-.38-.079h-.06c.04-.133.086-.264.139-.4a8.918,8.918,0,0,1,1.963-3.144,1.936,1.936,0,0,0,.463-.634,1.118,1.118,0,0,0,.041-.662,5.8,5.8,0,0,0-.4-1.005.076.076,0,0,1-.037-.078l-.041-.1c-.026-.061-.078-.189-.078-.2l.009,0s0-.008-.009-.035l-.016-.039a.383.383,0,0,1-.04-.142v-.06a1.749,1.749,0,0,1-.032-.217,1.007,1.007,0,0,1,0-.232.465.465,0,0,1,0-.087.9.9,0,0,1,.023-.13.844.844,0,0,1,.027-.116l.028-.088a2.626,2.626,0,0,1,.805-1.1,7.752,7.752,0,0,1,.7-.495,5.594,5.594,0,0,0,.906-.686A7.081,7.081,0,0,0,42.77,4.211a6.287,6.287,0,0,1,1.444-2.058,3.934,3.934,0,0,1,2.547-.767,9.872,9.872,0,0,1,1.323.1c.2.027.4.057.6.087a13.5,13.5,0,0,0,1.961.2,4.628,4.628,0,0,0,1.428-.2A8.028,8.028,0,0,0,53.556.854,9.293,9.293,0,0,1,54.8.228a4.51,4.51,0,0,1,5.417,2.2,10.268,10.268,0,0,1,.726,2.127,13.506,13.506,0,0,0,.514,1.665c.163.4.366.786.564,1.16A12.724,12.724,0,0,1,62.6,8.574a6.724,6.724,0,0,1,.463,3.033c-.018.18-.041.362-.069.541a.115.115,0,0,0-.018.066.531.531,0,0,1-.014.111c-.028.128-.056.26-.088.389l-.041.162c-.047.16-.108.365-.171.523-.053.134-.118.286-.2.464-.16.348-.344.692-.523,1.025A8.781,8.781,0,0,0,61,17.1a8.705,8.705,0,0,0-.134.925.644.644,0,0,0-.032.246v.111l-.028.2a.765.765,0,0,0,0,.111l-.041.194v.1c-.023.1-.051.192-.084.287a1.891,1.891,0,0,1-.926,1.1l-.115.047a1,1,0,0,1-.283.041c-.042.088-.084.172-.13.255a10.215,10.215,0,0,1-1.616,2.227A7.884,7.884,0,0,0,58,24.074v.032a12.207,12.207,0,0,0,1.639,2.255c.537.427,1.839,1.416,1.851,1.426a10.592,10.592,0,0,0,2.524.866,15.278,15.278,0,0,1,4.63,1.389,1.15,1.15,0,0,0,.7.242h.031a7.317,7.317,0,0,0,.926-.116l.171.06.347-.06c.014,0,1.455.476,2.7.778a2.028,2.028,0,0,1,1.2,1.046,3.2,3.2,0,0,1,.408,2.149,2.463,2.463,0,0,0,.611,2.315,5.658,5.658,0,0,1,.782,2.2A2.525,2.525,0,0,1,78,39.912a6.785,6.785,0,0,1,.32,2.524v.495h.005a4.111,4.111,0,0,1,1.335.29,2.317,2.317,0,0,1,1.53,1.911c.256,2.136,2.629,3.143,2.653,3.153.073.073,1.782,1.791,1.782,2.592A4.7,4.7,0,0,0,86.707,52.9a1.973,1.973,0,0,1,.265.39,5.44,5.44,0,0,0,.244.593,8.145,8.145,0,0,1,.886,2.648c-.07.193.148.65.4,1.179.373.781.8,1.667.511,2.1a18.909,18.909,0,0,0-1.047,2.158c-.021.039-2.061,3.908-3.088,4.63s-5.776,6.845-5.824,6.907S73.922,79.4,73.922,81.2L73.153,80l.769,12.964a24.408,24.408,0,0,1-2.171,1.68,2.508,2.508,0,0,1-1.447.41,7.755,7.755,0,0,1-3.946-1.531,2.9,2.9,0,0,0-1.278-.147c-.571,0-1.312.029-2.2.086.33,6.91-1.073,8.32-1.087,8.333l-.172,6.089c0,.093.21,9.282-.435,10.754s-.653,7.349-.653,7.408c0,.028.428,2.811-.041,3.407-.457.581-.161,2.745.218,4.018a15.82,15.82,0,0,1,.041,4.06l-.088,16.324c0,.042-.485,4.241-1.087,4.838a1.383,1.383,0,0,0-.347,1.389,14.673,14.673,0,0,0-.389,2.851,1.421,1.421,0,0,1-.607,1.9c-1,.473-.743,1.971-.741,1.986a3.082,3.082,0,0,0-.324-.055c.029.181.068.369.1.532a2.327,2.327,0,0,0,.352.926,7.969,7.969,0,0,1,.694,2.587c.064.127,1.557,3.126,1.39,3.8-.153.612-.336,1.751-.356,1.879l-.038.237a3.064,3.064,0,0,1-1.037,1.038,10.92,10.92,0,0,1-4.658,1.554A11.873,11.873,0,0,1,51.95,179.445ZM71.913,51.926,71.861,52V52a25.656,25.656,0,0,1-.171,4.271c-.138.351.018,3.351.463,8.917.007.084.016.167.025.249a5.1,5.1,0,0,1,.039.542,2.665,2.665,0,0,0,.579-1.157c.04-.632,2.757-3.627,4.088-3.759,0-.012.187-1.316-.13-1.7a.27.27,0,0,0-.2-.106c-.578-.032-1.041-1.407-1.046-1.421A22.287,22.287,0,0,1,71.913,51.926Z" transform="translate(432.754 209.027)" fill="url(#linear-gradient-2)"/>
    <path id="Path-42" data-name="Path" d="M0,8.333S1.588,0,6.685,0l3.731,7.671L7.931,9.384S2.528,9.532,0,8.333Z" transform="translate(439.917 260.773)" fill="#65617d"/>
    <path id="Path-43" data-name="Path" d="M10.417,7.662,7.931,9.375a29.436,29.436,0,0,1-6.519-.546A7.519,7.519,0,0,1,0,8.366l.028-.134V8.2A18.519,18.519,0,0,1,.991,5.148c.157-.375.333-.759.528-1.144A7.752,7.752,0,0,1,4.759.463,4.394,4.394,0,0,1,6.458,0h.227l.083.171L8.028,2.764Z" transform="translate(439.917 260.759)" opacity="0.1"/>
    <path id="Path-44" data-name="Path" d="M3.9,23.782s5.356-.514,5.829-.125,3.514,2.356,5.31,1.111.6-5.556.6-5.741-.171-6.3-.171-6.3L12.259,8.4,8.231.815,0,0,.213,12.037.171,18.208Z" transform="translate(488.773 279.181)" fill="#65617d"/>
    <path id="Path-45" data-name="Path" d="M3.9,23.782s5.356-.514,5.829-.125,3.514,2.356,5.31,1.111.6-5.556.6-5.741-.171-6.3-.171-6.3L12.259,8.4,8.231.815,0,0,.213,12.037.171,18.208Z" transform="translate(488.773 279.181)" opacity="0.1"/>
    <path id="Path-46" data-name="Path" d="M12.234,7.89S11.8,13.117,8.53,13.2c0,0-.926-.556-2.167-1.486C3.5,9.575-1.044,5.459.216,1.631c1.8-5.486,10.542,4.63,10.542,4.63l.676.755Z" transform="translate(433.298 252.647)" fill="#fbbebe"/>
    <path id="Path-47" data-name="Path" d="M6.148.894s-.431,5.227-3.7,5.315c0,0-.926-.556-2.167-1.486L0,4.366a4.264,4.264,0,0,0,1.787.463A2.412,2.412,0,0,0,4.1,3.361a18.518,18.518,0,0,0,.926-2.079A6.481,6.481,0,0,0,5.356,0Z" transform="translate(439.384 259.644)" opacity="0.1"/>
    <path id="Path-48" data-name="Path" d="M4.454,10.787l-.731-.926L1.255,6.685,0,5.06a4.227,4.227,0,0,0,1.782.463A2.4,2.4,0,0,0,4.1,4.055,18.139,18.139,0,0,0,5,1.981C5.407.824,5.4.231,5.255.027A11.436,11.436,0,0,1,6.671,1.287h0l.236.222L7,1.685l1.292,2.5a.671.671,0,0,1,0,.106C8.38,5.078,8.8,10.074,4.454,10.787Z" transform="translate(439.662 259.223)" fill="#e7effd"/>
    <path id="Path-49" data-name="Path" d="M23.855,6.88s-3.6,2.361-5.4,2.014a6.481,6.481,0,0,0-3.644.6,10.815,10.815,0,0,1-4.542,2.958,16.637,16.637,0,0,1-9.3-.171c-1.093-.366-1.181-.838-.653-1.417A19.764,19.764,0,0,1,3.8,8.509a33.657,33.657,0,0,0,6.13-5.227,1.852,1.852,0,0,1,.556-1.245,6.389,6.389,0,0,0,.866-.926C11.809.569,12.24,0,12.24,0L22.846.4s.181.764.324,1.546a5.593,5.593,0,0,1,.148,1.542,1.389,1.389,0,0,0,.3,1.069l.19,1.75Z" transform="translate(445.936 373.426)" fill="#65617d"/>
    <path id="Path-50" data-name="Path" d="M10.755,9.014c-.125.514-.282,1.431-.352,1.852a.781.781,0,0,1-.032.236s-.856,1.884-5.616,2.569S0,12.088,0,12.088l.046-.616c.083-1,.255-2.921.38-3.329a15.217,15.217,0,0,0-.125-3L.25,2.588.213.815,8.083,0a15.185,15.185,0,0,0,.255,1.755,2.255,2.255,0,0,0,.347.926A7.924,7.924,0,0,1,9.37,5.25S10.94,8.329,10.755,9.014Z" transform="translate(481.176 374.264)" fill="#65617d"/>
    <path id="Path-51" data-name="Path" d="M11.542.347s.181.764.324,1.546c-1.144.208-6.144,1.074-7.407.463A19.616,19.616,0,0,0,0,1.287l.051-.176C.514.569.944,0,.944,0Z" transform="translate(457.241 373.477)" opacity="0.1"/>
    <path id="Path-52" data-name="Path" d="M8.139,1.755c-2-.338-6.38.463-8.1.833L0,.815,7.87,0a15.185,15.185,0,0,0,.269,1.755Z" transform="translate(481.403 374.278)" opacity="0.1"/>
    <path id="Path-53" data-name="Path" d="M37.549,26.009l-.167,6.019s.213,9.213-.431,10.648S36.309,50,36.309,50s.431,2.778-.042,3.384-.13,2.829.213,3.986a15.663,15.663,0,0,1,.042,4.028l-.083,16.2s-.463,4.2-1.074,4.8a1.412,1.412,0,0,0-.343,1.389,14.44,14.44,0,0,0-.384,2.829,1.422,1.422,0,0,1-.6,1.884c-.981.472-.731,1.972-.731,1.972-2.356-.56-9.042.926-9.042.926a41.009,41.009,0,0,1-1.889-4.588A2.375,2.375,0,0,1,24.1,83.69c.9-.125-.644-1.713-.644-1.713s.171-.213-.259-1.759.088-5.486.218-6.514.769-6.019.769-6.019-.343-6.3-.083-6.556,1.111-2.745.685-3.556a42.933,42.933,0,0,1-1.116-6.481c0-.31-.556-7.245-.556-7.245a57.764,57.764,0,0,1-.384-5.87,37.829,37.829,0,0,0-.347-4.843,16.456,16.456,0,0,0-1.852-6.6l-.046.125L16.5,37.194s-.644,3.171-1.2,4.972a32.662,32.662,0,0,0-.838,3.7l-.037.231-.037.241-.028.171h0s.3,2.269-.176,3a10.7,10.7,0,0,0-.981,3.514c0,.6.042,2.917.042,2.917s.171,4.583-.3,5.093a.8.8,0,0,0-.213.926s.769,3.472.426,4.37a9.035,9.035,0,0,0-.083,3s-.685,6.644-.773,6.986-.556,3-.042,3.213a6.859,6.859,0,0,1,1.5,1.5s.213,5.616-.556,6.042-.347,2.616-.347,2.616-6.213,1.2-7.625.514A19.561,19.561,0,0,0,.772,89.134L1.2,87.745c-.028.051-.31.509-.509-1.245-.218-1.852,1.583-.926,1.583-.926s1.417.343-.856-1.884S.258,79.19.387,79.19a28.745,28.745,0,0,0,.426-3.3A10.912,10.912,0,0,0,.9,72.375C.6,70.833.346,66.032.346,66.032A23.232,23.232,0,0,0,.17,61.06c-.389-1.329.259-3.7.389-4.287S.17,51.116.17,51.116a15.866,15.866,0,0,0,.176-4.167A70.336,70.336,0,0,1,.6,38.718l.773-7.454a15.405,15.405,0,0,0,.463-3.241,26,26,0,0,1,.644-4.241,4.7,4.7,0,0,1,.343-2.06,15.831,15.831,0,0,0,.6-3.7L7.54,8.593,9.554.259,36.767,0s.1.722.264,2.032.4,3.241.657,5.644c.236,2.176.5,4.736.75,7.583C39.267,24.38,37.549,26.009,37.549,26.009Z" transform="translate(456.451 285.056)" fill="#3f3d56"/>
    <path id="Path-54" data-name="Path" d="M14.458,6.981,8.12,13.764S-.019,10.523.838,9.389C1.167,8.958,1.116,7.6.926,6.1.625,3.722,0,1,0,1s14.227-2.315,13.023.083a3.944,3.944,0,0,0-.088,2.847,10.782,10.782,0,0,0,1.523,3.046Z" transform="translate(477.009 229.042)" fill="#fbbebe"/>
    <path id="Path-55" data-name="Path" d="M13,1.088c-.435.88-.644.963-.37,1.907-1.852,2-4.227,4.167-7.171,4.167A10.148,10.148,0,0,1,.926,6.1C.625,3.722,0,1,0,1S14.208-1.31,13,1.088Z" transform="translate(477.009 229.019)" opacity="0.1"/>
    <path id="Path-56" data-name="Path" d="M20.4,10.273a10.2,10.2,0,0,1-20.4,0v-.148a10.2,10.2,0,1,1,20.4.148Z" transform="translate(472.273 215.463)" fill="#fbbebe"/>
    <path id="Path-57" data-name="Path" d="M28.693,5.634c-1.352,0-5.852.046-10.88.13h-.06l-1.662.028H16.04C10.077,5.884,4.2,4.722,1.841,4.94-3.173,5.4,3.642.31,3.642.31A42.051,42.051,0,0,0,15.064,1.463l1.444-.074C21.064,1.13,25.642.7,28.036,0,28.2,1.315,28.434,3.241,28.693,5.634Z" transform="translate(465.46 287.394)" opacity="0.1"/>
    <path id="Path-58" data-name="Path" d="M28.693,5.63c-1.352,0-5.852.051-10.88.13h-.06l-1.662.028H16.04c-5.963.1-11.838-1.069-14.2-.847C-3.173,5.4,3.642.31,3.642.31A41.838,41.838,0,0,0,15.064,1.463l1.444-.074C21.064,1.134,25.642.7,28.036,0,28.2,1.31,28.434,3.236,28.693,5.63Z" transform="translate(465.46 287.139)" fill="#5f5d7e"/>
    <path id="Path-59" data-name="Path" d="M13.958,1.514l-7.87,3.7L0,52.273s3.6-1.63,5.657-.6,8.4.088,8.4.088,4.63-.259,5.315.259,8.745-2.144,8.745-2.144,1.458-3.241.343-3.773.343-5.556.343-5.556L28.116,6.6l-1.389-4.37L23.023,0,19.255,3l-1.8.259Z" transform="translate(465.773 237.338)" opacity="0.1"/>
    <path id="Path-60" data-name="Path" d="M13.972,1.509,6.1,5.213,0,52.273s3.6-1.63,5.657-.6,8.4.088,8.4.088,4.63-.259,5.315.255,8.745-2.139,8.745-2.139,1.458-3.241.343-3.773.343-5.556.343-5.556L28.116,6.6l-1.389-4.37L23.023,0,19.255,3l-1.8.259Z" transform="translate(465.759 236.829)" fill="#e7effd"/>
    <path id="Path-61" data-name="Path" d="M6.148.671S8.421,3.37,8.38,3.912,8.25,5.8,8.25,5.8L6.537,9.269S5.611,13.6,5.611,14.5s-1.5,8.7-1.5,8.7L2.273,35.213,0,50.954,2.315,54.94,5.06,52.625,8.7,24.6l.769-5.528s.815-9.944.815-10.972A34.93,34.93,0,0,0,9.824,4.37,4.39,4.39,0,0,1,12.7,1.2c2.315-.6-.176-.13-.176-.13L11.2,0,10.042.463S6.833-.528,6.148.671Z" transform="translate(473.454 239.852)" opacity="0.1"/>
    <path id="Path-62" data-name="Path" d="M6.111.694s2.269,2.7,2.227,3.241-.13,1.884-.13,1.884L6.5,9.292s-.926,4.329-.926,5.227-1.5,8.7-1.5,8.7l-1.8,12L0,50.958l2.315,3.986L5.056,52.63,8.7,24.6l.773-5.528s.815-9.944.815-10.972A35.06,35.06,0,0,0,9.824,4.37,4.387,4.387,0,0,1,12.694,1.2c2.315-.6-.171-.125-.171-.125L11.194,0,10.037.463S6.8-.5,6.111.694Z" transform="translate(473.236 239.569)" fill="#ffab2b"/>
    <path id="Path-63" data-name="Path" d="M1.718,0s-.343.259-.431,1.972A34.311,34.311,0,0,1,0,7.528S4.458,4.444,6.685,4.787Z" transform="translate(476.13 235.764)" opacity="0.1"/>
    <path id="Path-64" data-name="Path" d="M1.718,0s-.343.259-.431,1.972A34.311,34.311,0,0,1,0,7.528S4.458,4.444,6.685,4.787Z" transform="translate(476.13 235.25)" fill="#e7effd"/>
    <path id="Path-65" data-name="Path" d="M7.028,0,0,6.171s5.912,3.514,6.685,4.37,1.542-8.4,1.542-8.4Z" transform="translate(482.991 234.394)" opacity="0.1"/>
    <path id="Path-66" data-name="Path" d="M7.028,0,0,6.171s5.917,3.514,6.685,4.37,1.542-8.4,1.542-8.4Z" transform="translate(483.245 233.88)" fill="#e7effd"/>
    <path id="Path-67" data-name="Path" d="M20.412.064s-.769-.384-1.5.731a4.838,4.838,0,0,1-2.1,1.625s-7.8,1.245-8.1,2.273l-3.644.213s-1.287.171-1.389,2.875-.815,2.954-.815,2.954-1.5,2.657-1.389,4.028a2.255,2.255,0,0,1-1.157,2.06L5.676,30.749s.171,5.745-.815,7.843-2.829,11.4-2.829,11.4.773-.171.727.343-.926,6.13-.926,6.13a12.479,12.479,0,0,1-.685,3c-.426.773-.463,4.8-.463,4.8L0,67.18s1.625,3.644,4.111,3.13,6.981-10.245,6.981-10.245l2.87-10.5,2.231-10.37.644-7.028,1.028-15.56,1.5-10.282S21.014.8,20.412.064Z" transform="translate(457.69 235.7)" opacity="0.1"/>
    <path id="Path-68" data-name="Path" d="M20.417.064s-.773-.384-1.5.731a4.866,4.866,0,0,1-2.1,1.625s-7.8,1.245-8.1,2.273l-3.639.213s-1.287.171-1.417,2.87-.815,2.958-.815,2.958-1.5,2.657-1.389,4.028A2.245,2.245,0,0,1,.3,16.823L5.671,30.768s.171,5.745-.815,7.843-2.829,11.4-2.829,11.4.773-.171.731.343-.926,6.125-.926,6.125a12.208,12.208,0,0,1-.685,3c-.431.769-.463,4.8-.463,4.8L0,67.2s1.63,3.644,4.116,3.125S11.1,60.082,11.1,60.082l2.87-10.5L16.2,39.212l.616-7.056L17.843,16.6l1.5-10.282S21.014.8,20.417.064Z" transform="translate(457.431 235.186)" fill="#65617d"/>
    <path id="Path-69" data-name="Path" d="M10.671,7.912,8.185,9.625a29.436,29.436,0,0,1-6.519-.546L.278,8.463,0,8.343l.287.093a5.676,5.676,0,0,0,3.431.12C7.236,7.37,6.847,1.565,6.708.25A1.214,1.214,0,0,0,6.681,0h0V.032a2.315,2.315,0,0,0,.162.227L7,.426H7L8.287,2.9a.671.671,0,0,1,0,.106Z" transform="translate(439.662 260.509)" opacity="0.1"/>
    <path id="Path-70" data-name="Path" d="M19.037,0l-1.2.343-.171,2.44a1.659,1.659,0,0,0-1.8,1.458A5.884,5.884,0,0,1,14.8,6.685S12.44,8.657,12.31,10.329l-1.458.9s-3.384-.773-4.167-2.144c0,0,1.546,11.056-6.685,8.333,0,0,9.213,4.028,9.644,4.588a5.387,5.387,0,0,0,5.829.815,6.113,6.113,0,0,0,3.13-3.472,35.813,35.813,0,0,0,2.569-3.986c.083-.514,2.014-1.116,2.014-1.116l3.7-8.912Z" transform="translate(439.907 251.667)" fill="#65617d"/>
    <path id="Path-71" data-name="Path" d="M.847,5.657,2.088,0A6.657,6.657,0,0,0,3.2,2.273L5.056,3.662a10.871,10.871,0,0,0,2.486.856c.634,0,4.116.926,4.542,1.389s2.144.13,2.144.13,1.412.463,2.657.773,1.852,2.356,1.583,3.171a2.477,2.477,0,0,0,.6,2.315,5.527,5.527,0,0,1,.773,2.185A2.509,2.509,0,0,1,21.3,15.722a8.57,8.57,0,0,1,.3,3l-6.384,9a26.483,26.483,0,0,1-.171,4.245c-.255.773.9,13.889.9,13.889L17.269,68.4a23.384,23.384,0,0,1-2.144,1.671c-.384.171-.769-7.972-.769-8.269s-9.9-14.815-9.9-14.815A13.3,13.3,0,0,1,3.125,44.37c0-.472-1.241-4.8-1.241-4.8L0,31.236Z" transform="translate(488.185 233.88)" opacity="0.1"/>
    <path id="Path-72" data-name="Path" d="M21.611,18.231v.491l-6.38,8.991h0a25.947,25.947,0,0,1-.171,4.245c-.148.463.176,5.06.463,8.847.218,2.731.417,5.037.417,5.037L16.5,55.4l.764,12.963a23.384,23.384,0,0,1-2.144,1.671c-.384.171-.769-7.972-.769-8.273s-9.9-14.815-9.9-14.815a13.3,13.3,0,0,1-1.329-2.616c0-.472-1.241-4.8-1.241-4.8L0,31.2.856,5.657,1.583,0a12.143,12.143,0,0,0,1.63,2.269L5.065,3.685a10.871,10.871,0,0,0,2.486.856c.634,0,4.116.926,4.542,1.389s2.144.13,2.144.13,1.417.463,2.657.773S18.745,9.19,18.477,10a2.481,2.481,0,0,0,.6,2.315,5.527,5.527,0,0,1,.773,2.185,2.509,2.509,0,0,1,1.454,1.241A6.944,6.944,0,0,1,21.611,18.231Z" transform="translate(488.694 233.884)" fill="#65617d"/>
    <path id="Path-73" data-name="Path" d="M0,0C.213,0,9.213.343,9.042,1.8S0,0,0,0Z" transform="translate(457.917 366.306)" opacity="0.1"/>
    <path id="Path-74" data-name="Path" d="M0,0S6.042.986,4.458,1.884,0,0,0,0Z" transform="translate(459.931 368.731)" opacity="0.1"/>
    <path id="Path-75" data-name="Path" d="M0,0S10.028.856,8.528,1.968,3.472,3.255,3.3,3.3,0,0,0,0Z" transform="translate(482.389 365.366)" opacity="0.1"/>
    <path id="Path-76" data-name="Path" d="M0,0S5.556.926,5.741,2.014,0,0,0,0Z" transform="translate(481.19 369.778)" opacity="0.1"/>
    <path id="Path-77" data-name="Path" d="M0,0S5.093,1.2,5.4,2.014Z" transform="translate(484.273 343.977)" opacity="0.1"/>
    <path id="Path-78" data-name="Path" d="M1.206,0s-2.657.773-.083,2.315S1.206,0,1.206,0Z" transform="translate(463.41 347.662)" opacity="0.1"/>
    <path id="Path-79" data-name="Path" d="M0,1.032c.3,0,4.972-1.542,6.6-.856a10.856,10.856,0,0,0,3.639.685Z" transform="translate(476.389 305.445)" opacity="0.1"/>
    <path id="Path-80" data-name="Path" d="M6.079,2.366l-.046.426-4,10.463s-.644,3.171-1.2,4.972A32.662,32.662,0,0,0,0,21.931L3.537,0Z" transform="translate(470.912 308.995)" opacity="0.1"/>
    <path id="Path-81" data-name="Path" d="M2.69,4.37,1.028,4.4H.977L0,.079,1.444,0Z" transform="translate(480.523 288.528)" fill="#3f3d56"/>
    <path id="Path-82" data-name="Path" d="M17.253,4.116,16.188,5,12.623,7.926s-9.639,5.144-12.3.259C-2.016,3.88,8.915.806,11.549.134L12.109,0Z" transform="translate(486.178 283.551)" fill="#fbbebe"/>
    <path id="Path-83" data-name="Path" d="M0,0S1.884.856,2.315,2.056,0,0,0,0Z" transform="translate(462.245 245.537)" opacity="0.1"/>
    <path id="Path-84" data-name="Path" d="M1.895,0S-.846,3.343.265,4.63,1.895,0,1.895,0Z" transform="translate(454.522 258.394)" opacity="0.1"/>
    <path id="Path-85" data-name="Path" d="M2.657,0S.088.259,0,2.486Z" transform="translate(502.787 247.435)" opacity="0.1"/>
    <path id="Path-86" data-name="Path" d="M0,8.275c.259-.259,6.171-9,7.546-8.227Z" transform="translate(481.616 274.29)" opacity="0.1"/>
    <path id="Path-87" data-name="Path" d="M20.38,10.25a10.185,10.185,0,0,1-1.208,4.815H19.1c-.648-.139-.986-.889-1.477-1.361a2,2,0,0,0-2.315-.324,2.352,2.352,0,0,0-1.139,2.2c-.324-1.389-.222-2.833-.542-4.208s-1.278-2.778-2.593-2.778c-.565,0-1.227.208-1.634-.218a4.055,4.055,0,0,1-.463-.968c-.926-1.523-3.8-.755-4.963.028A30.207,30.207,0,0,1,0,10.125a10.2,10.2,0,1,1,20.4.148Z" transform="translate(472.296 215.486)" opacity="0.1"/>
    <path id="Path-88" data-name="Path" d="M11.542,12.629A6.5,6.5,0,0,0,12,13.6c.407.421,1.069.2,1.634.213,1.315.023,2.278,1.417,2.593,2.778s.218,2.833.546,4.2A2.315,2.315,0,0,1,17.912,18.6a2.014,2.014,0,0,1,2.315.319c.491.463.829,1.227,1.477,1.361s1.269-.486,1.5-1.167a17.861,17.861,0,0,0,.37-2.134c.292-1.333,1.167-2.431,1.648-3.7a6.718,6.718,0,0,0-.042-4.787c-.324-.806-.8-1.528-1.125-2.315-.5-1.218-.625-2.6-1.227-3.759A4.444,4.444,0,0,0,17.491.222c-.926.352-1.741,1.028-2.685,1.333a8.819,8.819,0,0,1-3.931-.083,4.838,4.838,0,0,0-3.815.662c-1.213,1-1.546,2.861-2.685,3.949-.463.463-1.074.75-1.579,1.171a2.176,2.176,0,0,0-.884,1.741c.079.889.926,1.694.625,2.519a1.954,1.954,0,0,1-.463.625A8.972,8.972,0,0,0,0,15.671c2.315.713,4.778-1.815,6.569-3.009C7.745,11.879,10.6,11.11,11.542,12.629Z" transform="translate(469.671 209.982)" fill="#7c5c5c"/>
    <path id="Path-89" data-name="Path" d="M5.87,4.116,4.806,5C3.88,3.426,0,.3,0,.3L.167.134.727,0Z" transform="translate(497.56 283.551)" opacity="0.1"/>
    <path id="Path-90" data-name="Path" d="M6.639,3.9s-.38.954-.778,1.778-.829,1.574-.847.968C4.968,5.444,0,1.417,0,1.417L.671.759,1.454,0Z" transform="translate(497.819 282.176)" fill="#e7effd"/>
    <path id="Path-91" data-name="Path" d="M6.769,5.037l.565,9.56C6,12.528,2.347,7.222,0,7.394L5.7.838A7.639,7.639,0,0,0,6.352,0C6.569,2.731,6.769,5.037,6.769,5.037Z" transform="translate(497.861 274.699)" opacity="0.1"/>
    <path id="Path-92" data-name="Path" d="M5.968,3.9s-.38.954-.778,1.778C3.694,3.634,1.644,1.213,0,.759L.782,0Z" transform="translate(498.491 282.176)" opacity="0.1"/>
    <path id="Path-93" data-name="Path" d="M10.63,0l1.542,1.2S14.745,1.245,15,3.384s2.616,3.13,2.616,3.13S19.37,8.273,19.37,9.088s1.329,2.269,1.329,2.4,1.287,2.741,1.116,3.213,1.389,2.528.9,3.3a19.847,19.847,0,0,0-1.028,2.144S19.671,24,18.644,24.727,12.9,31.588,12.9,31.588s-5.06,5.824-5.06,7.625c0,0-4.926-8.227-7.843-8.014l5.7-6.556a4.444,4.444,0,0,0,1.032-1.713c.046-.639,2.741-3.6,4.028-3.731,0,0,.213-1.755-.343-1.8s-1.028-1.389-1.028-1.389S5.616,11.551,5.574,8.722,10.63,0,10.63,0Z" transform="translate(498.116 251.407)" fill="#65617d"/>
    <path id="Path-94" data-name="Path" d="M2.937,0S-.664,2.657.109,3.519,2.937,0,2.937,0Z" transform="translate(508.081 255.477)" opacity="0.1"/>
    <path id="Path-95" data-name="Path" d="M0,.953s6.685-2.144,7.37,0Z" transform="translate(511.19 265.496)" opacity="0.1"/>
    <path id="Path-96" data-name="Path" d="M23.855.606s-3.6,2.361-5.4,2.014a6.481,6.481,0,0,0-3.644.6,10.815,10.815,0,0,1-4.542,2.958,16.637,16.637,0,0,1-9.3-.171C-.126,5.644-.214,5.171.314,4.593c2.514.5,8.139,1.5,9.653.773a40.176,40.176,0,0,0,4.8-3s3.7-.514,4.2-.514A45.85,45.85,0,0,0,23.786,0Z" transform="translate(445.936 379.699)" opacity="0.1"/>
    <path id="Path-97" data-name="Path" d="M10.4,0a.781.781,0,0,1-.032.236S9.514,2.12,4.755,2.806,0,1.222,0,1.222L.046.606C1.551,1.181,4.838,1.815,10.4,0Z" transform="translate(481.19 385.144)" opacity="0.1"/>
    <path id="Path-98" data-name="Path" d="M1.067,0s0,9.773-.833,10.736S1.067,0,1.067,0Z" transform="translate(462.956 254.963)" opacity="0.1"/>
    <path id="Path-99" data-name="Path" d="M0,0,1.245,3.491S1.736.065,0,0Z" transform="translate(502.657 258.116)" opacity="0.1"/>
    <g id="Group" transform="translate(469.444 218.056)" opacity="0.1">
      <path id="Path-100" data-name="Path" d="M.759,2.454C1.074,1.653.25.861.143,0A1.579,1.579,0,0,0,0,.773,15.065,15.065,0,0,0,.666,2.625a1.056,1.056,0,0,0,.093-.171Z" transform="translate(2.153 0.144)"/>
      <path id="Path-101" data-name="Path" d="M16.884,8.972c-.306-1.352-.213-2.778-.528-4.134S15.079,2.06,13.764,2.06c-.565,0-1.227.2-1.634-.218-.25-.255-.3-.657-.463-.972C10.741-.648,7.87.125,6.7.9,4.949,2.064,2.532,4.5.292,3.949c-.106.259-.208.523-.292.8,2.315.713,4.778-1.815,6.569-3.009C7.741.958,10.6.189,11.537,1.708A6.5,6.5,0,0,0,12,2.68c.407.421,1.069.2,1.634.213,1.315.023,2.278,1.417,2.593,2.778s.218,2.833.546,4.2A2.315,2.315,0,0,1,16.884,8.972Z" transform="translate(0.25 2.857)"/>
      <path id="Path-102" data-name="Path" d="M6.432.745c-.231.681-.843,1.306-1.5,1.167S3.945,1.023,3.455.551A2.019,2.019,0,0,0,1.14.227,2.343,2.343,0,0,0,0,2.305,2.236,2.236,0,0,1,1.01,1.065a2.014,2.014,0,0,1,2.315.319c.491.463.829,1.227,1.477,1.361S6.07,2.259,6.3,1.578A5.468,5.468,0,0,0,6.538.347a2.972,2.972,0,0,1-.106.4Z" transform="translate(17.147 9.477)"/>
      <path id="Path-103" data-name="Path" d="M1.773.954C1.31,2.222.417,3.319.125,4.657.069,4.926.032,5.2,0,5.481c.3-1.333,1.162-2.426,1.644-3.7A6.431,6.431,0,0,0,2.037,0a6.481,6.481,0,0,1-.264.954Z" transform="translate(23.824 3.426)"/>
    </g>
    <circle id="Oval-7" data-name="Oval" cx="0.106" cy="0.106" r="0.106" transform="translate(433 253.255)" fill="#e6e8ec"/>
    <rect id="Rectangle-16" data-name="Rectangle" width="83.88" height="96.398" rx="6.61" transform="translate(393.111 255.75)" fill="#fff"/>
    <rect id="Rectangle-17" data-name="Rectangle" width="83.88" height="96.398" rx="6.61" transform="translate(393.111 255.75)" fill="#5a5773" opacity="0.1"/>
    <rect id="Rectangle-18" data-name="Rectangle" width="75.324" height="86.565" rx="6.61" transform="translate(397.389 260.667)" fill="#fff"/>
    <rect id="Rectangle-19" data-name="Rectangle" width="51.676" height="17.833" rx="6.03" transform="translate(408.347 278.028)" fill="#ffab2b"/>
    <rect id="Rectangle-20" data-name="Rectangle" width="47.884" height="3.639" transform="translate(410.245 302.384)" fill="#ffab2b"/>
    <rect id="Rectangle-21" data-name="Rectangle" width="65.889" height="3.639" transform="translate(402.106 310.065)" fill="#ffab2b"/>
    <rect id="Rectangle-22" data-name="Rectangle" width="65.889" height="3.639" transform="translate(402.106 318.148)" fill="#ffab2b"/>
    <rect id="Rectangle-23" data-name="Rectangle" width="65.889" height="3.639" transform="translate(402.106 326.231)" fill="#ffab2b"/>
    <rect id="Rectangle-24" data-name="Rectangle" width="197.505" height="96.398" rx="6.61" transform="translate(0 223.884)" fill="#fff"/>
    <rect id="Rectangle-25" data-name="Rectangle" width="197.505" height="96.398" rx="6.61" transform="translate(0 223.884)" fill="#5a5773" opacity="0.1"/>
    <rect id="Rectangle-26" data-name="Rectangle" width="177.352" height="86.565" rx="6.61" transform="translate(10.074 228.801)" fill="#fff"/>
    <rect id="Rectangle-27" data-name="Rectangle" width="121.671" height="17.833" rx="6.03" transform="translate(35.884 246.167)" fill="#ffab2b"/>
    <rect id="Rectangle-28" data-name="Rectangle" width="112.745" height="3.639" transform="translate(40.347 270.519)" fill="#ffab2b"/>
    <rect id="Rectangle-29" data-name="Rectangle" width="155.139" height="3.639" transform="translate(21.181 278.199)" fill="#ffab2b"/>
    <rect id="Rectangle-30" data-name="Rectangle" width="155.139" height="3.639" transform="translate(21.181 286.282)" fill="#ffab2b"/>
    <rect id="Rectangle-31" data-name="Rectangle" width="155.139" height="3.639" transform="translate(21.181 294.366)" fill="#ffab2b"/>
    <path id="Path-104" data-name="Path" d="M.025,171.149c.551-2.009.926-3.778.926-3.778a7.87,7.87,0,0,1,1.028-3.829v-.556h0l.157-4.079a13.578,13.578,0,0,0-.926-2.176c-.685-1.31.231-5.981.231-5.981s2.977-6.514,2.477-10.741,6.306-18.44,6.306-18.44A18.278,18.278,0,0,0,9.8,117.4a3.194,3.194,0,0,1-.046-.866.82.82,0,0,1,0-.106v.032c.2-2.778,2.588-7.87,2.588-7.87l.088-9.907a29.189,29.189,0,0,1,1.389-13.634c.9-2.7,1.5-4.87,1.884-6.546.046-.19.088-.37.125-.546-4.667-.9-8.231-1.63-8.231-1.63s3.162-11.287,5.093-13.208,3.625-8.134,3.625-8.134,1.269-8.009-.185-10.417-1.519-6.481-1.519-6.481-3.435-2.7-3.833-3.852a18.887,18.887,0,0,1-.981-5.093c.051-1.343.542-2.546.421-3.264s1.162-3.375.62-4.681a3.583,3.583,0,0,1-.185-1.245v-.037h0a17.324,17.324,0,0,1,.44-3.329,9.444,9.444,0,0,1,3.565-1.731l.088-.306.231-.792a3.856,3.856,0,0,1,.352-.194l.023-.292.074-1.153-.444-2.63c-.926-4.565,5.148-5,5.148-5a3.181,3.181,0,0,1,1.764-1.435c1.231-.38-.056,6.81-.644,7.25a24.572,24.572,0,0,0-2.523,3.634h0l-.111.181a2.5,2.5,0,0,1,.269.3l-.292,1.56-.046.236a6.481,6.481,0,0,1,.9,1.681,3.49,3.49,0,0,0-.981,2.528A8.144,8.144,0,0,1,18,23.538c.065-.069.875-.88,1.644-.648s2.907.968,2.907.968,1.606.347,1.444.7,1.032,1.963,1.032,1.963l4.5-3.949c.051-.125.1-.245.144-.37a10.347,10.347,0,0,0,.463-1.792,9.685,9.685,0,0,1-1.389-.5,3.023,3.023,0,0,1-1.176-.815,4.861,4.861,0,0,1-.625-1.9,26.677,26.677,0,0,0-1.477-3.662,11.708,11.708,0,0,1-.62-6.481A4.315,4.315,0,0,1,25.594,5.2c.75-.949,2.051-1.3,3.019-2.037S30.228,1.251,31.34.71A5.255,5.255,0,0,1,34.654.552,17.713,17.713,0,0,1,40.7,3.011a3.139,3.139,0,0,0,2.037.759,2.81,2.81,0,0,0,1.528-1.032.343.343,0,0,1,0-.065l.051-.051A7.634,7.634,0,0,1,44.858,5.9a2.445,2.445,0,0,1-.037.519V6.6a.843.843,0,0,0,0,.153h0a.764.764,0,0,0,.028.227,1.625,1.625,0,0,0,.384.606,3.31,3.31,0,0,1,.333.5.661.661,0,0,0-.051-.181,2.583,2.583,0,0,1,.4,1.389,1.356,1.356,0,0,1-.366.968,4.3,4.3,0,0,1-.731.546,8.31,8.31,0,0,1-4.3,8.468c-.056.12-.111.245-.162.37a10.352,10.352,0,0,0-.972,4.708,1.11,1.11,0,0,0,.037.347c.037.116.106.125.153.19h0s7.176.347,8.926-1.12,4.12,3.9,4.12,3.9,2.556.6,3.088.12,3.537.065,3.537.065a6.481,6.481,0,0,1,4.546-1.468,13.282,13.282,0,0,1,3.366-1.7h0l.083-.028h0a3.63,3.63,0,0,1,1.625-.144A32.625,32.625,0,0,0,73.6,20.2c1.088-1.532,6.194-7.148,6.194-7.176l.032-.278.088-.843a2.833,2.833,0,0,0,.435.056l.111-.292a15.893,15.893,0,0,1,1.134-2.352s.042-1.069-.259-1.347.292-4.167.292-4.167,3.468-7.315,6.1-1.653c0,0,5.25,3.8.565,7.81,0,0-1.852.806-2.116,1.486-.185.463-.847,1.676-1.292,2.5l-.2.366.051.046-.093.694-.037.273c.829.514,1.389,1.014,1.236,1.389a7.87,7.87,0,0,0-.588,1.9s-6.546,7.546-7.481,10.875c0,0-17.157,9.324-22.685,9.824l.764,5.019a40.01,40.01,0,0,1,.065,4.069c-.116,1.065.435,5.931.435,5.931s.681,7.157,1.454,8.185.463,5.3.463,5.3a36.069,36.069,0,0,0,.87,6.093,15.568,15.568,0,0,1,0,6.06s2.551,6.514-3.977,1.912c0,0-3.278-.329-7.056-.6v.375c0,.491-.023,1.019-.037,1.574-.093,3.671-.264,8.727-.579,12.546-.556,6.755-3.13,20.06-3.13,20.06l-.259,6.722a8.907,8.907,0,0,1,.12,1.931,12.5,12.5,0,0,1-2.069,6.662l-.69,4.468a17.605,17.605,0,0,0-1.412,4.671,2.1,2.1,0,0,0,.037.431,3.435,3.435,0,0,1,.032.69,37.778,37.778,0,0,1-1.426,6.861s-.264,4.912-1.009,5.167c-.639.222.731,2.866,1.139,3.625a.755.755,0,0,0,.032-.139l.088.148a3.491,3.491,0,0,1,.181,1.255,1.792,1.792,0,0,1-.884,1.694c-1.431.8-2.208,1.481-1.032,1.815a13.072,13.072,0,0,1,1.287.319l.069-.162a.792.792,0,0,1,.463.88,3.6,3.6,0,0,1-.5,1.648,17.944,17.944,0,0,1-2.13,3.556l-.565-.083a2.824,2.824,0,0,0,.306.616,2.352,2.352,0,0,0,.806.773,2.574,2.574,0,0,0,.991.38,2.856,2.856,0,0,1,2.046,1.1c.694.977,1.106,2.287-.389,3.366l-5.329,1.611s-9.093.829-8.537-1.181.926-3.778.926-3.778a8.032,8.032,0,0,1,.87-3.574,4.778,4.778,0,0,1,.343-.519l-.319-.046s-.528-4.514-1.4-5.389c-.194-.208-.236-.361-.185-.463-.079-.245.153-.38.463-.463a.721.721,0,0,0,.06.176,4.468,4.468,0,0,1,.88-.06s.384-2.338-.537-3.241a.88.88,0,0,1-.157-.7,3.606,3.606,0,0,1,.134-.954.347.347,0,0,0,.032.056,35.037,35.037,0,0,1,2.315-5.435,6.8,6.8,0,0,0-.4-3.014c-.556-.88.523-11.6.523-11.6s-.023-5.2.731-7.6-.606-5.3-.606-5.3a.735.735,0,0,1,.023-.153.19.19,0,0,0,0-.042s.046-.319.12-.815v.051c.2-1.389.579-3.847.829-5,.356-1.625.292-9.472.292-9.472l-1.2-3.38-2.579,5.676L24.1,117.2a6.533,6.533,0,0,0-1.389,3.241v.245a3.852,3.852,0,0,1,0,.514,4.593,4.593,0,0,1-.87,2.708s-.8,3.606-1.852,4.491a4.2,4.2,0,0,0-1.134,2.667s-1.454,5.222-2.079,6.125a9.212,9.212,0,0,0-.653,3.56h0v.19s-.245,1.88-.3,3.463v.56a.1.1,0,0,1,0-.037,5.366,5.366,0,0,0,.1,1.282v-.19a13.468,13.468,0,0,1,.255,3.3c-.042,1.894-.417,4.125-1.616,5.4-2.074,2.2-3.31,1.852-3.31,1.852s.847,2.884,2,3.5a.737.737,0,0,1,.125.083.285.285,0,0,1,.032-.162,1.389,1.389,0,0,1,.306,1.074,7.676,7.676,0,0,1-1.62,4.167,2.315,2.315,0,0,1-1.014.546,1.745,1.745,0,0,0,.181.12,3.633,3.633,0,0,0,.4.2,1.968,1.968,0,0,0,.593.181,2.815,2.815,0,0,1,2.046,1.1c.694.972,1.106,2.282-.389,3.361l-5.329,1.611S-.535,173.159.025,171.149Z" transform="translate(48.248 218.499)" fill="url(#linear-gradient-3)"/>
    <path id="Path-105" data-name="Path" d="M8.274,10.128l5.162-1.616c1.449-1.083,1.051-2.394.38-3.37a2.7,2.7,0,0,0-1.977-1.088,2.417,2.417,0,0,1-.963-.384A2.315,2.315,0,0,1,10.1,2.9,3.8,3.8,0,0,1,9.6.91S4.07-.941,2.478.637a4.167,4.167,0,0,0-.708.968A8.333,8.333,0,0,0,.918,5.179S.566,6.943.024,8.957,8.274,10.128,8.274,10.128Z" transform="translate(74.42 384.21)" fill="#2d293d"/>
    <path id="Path-106" data-name="Path" d="M8.283,10.146l5.162-1.616c1.449-1.083,1.051-2.394.38-3.366a2.7,2.7,0,0,0-1.981-1.093,1.819,1.819,0,0,1-.574-.176,3.639,3.639,0,0,1-.384-.208A3.268,3.268,0,0,1,9.6.91S4.075-.941,2.482.637a4.093,4.093,0,0,0-.565.7,8.079,8.079,0,0,0-1,3.838S.561,6.947.024,8.957,8.283,10.146,8.283,10.146Z" transform="translate(49.592 380.724)" fill="#2d293d"/>
    <path id="Path-107" data-name="Path" d="M.7.638a4.167,4.167,0,0,0-.7.968H0L8.333,2.9a3.8,3.8,0,0,1-.5-1.991S2.315-.94.7.638Z" transform="translate(76.19 384.209)" opacity="0.1"/>
    <path id="Path-108" data-name="Path" d="M.06,1.359,0,2.929C1.222,5.128,7.542,4.9,9.412,3.9a3.639,3.639,0,0,1-.384-.208A3.268,3.268,0,0,1,7.745.91S2.218-.941.625.637a4.093,4.093,0,0,0-.565.722Z" transform="translate(51.449 380.724)" opacity="0.1"/>
    <path id="Path-109" data-name="Path" d="M.244,82.778a14.384,14.384,0,0,1,.926,2.176l-.227,5.62c1.333,2.407,8.769,1.907,9.815.667S13,86.69,11.883,86.079s-1.935-3.5-1.935-3.5,1.2.333,3.213-1.852,1.634-7.282,1.319-8.5.208-5.269.208-5.269.037-2.852.644-3.755,2.019-6.125,2.019-6.125a4.179,4.179,0,0,1,1.1-2.667c1.032-.884,1.815-4.5,1.815-4.5a4.657,4.657,0,0,0,.829-3.032,6.234,6.234,0,0,1,1.352-3.657l2.718-7.593,2.5-5.681,1.153,3.394s.056,7.847-.292,9.472-.926,5.954-.926,5.954,1.315,2.9.583,5.3-.722,7.6-.722,7.6-1.056,10.727-.519,11.6a6.97,6.97,0,0,1,.384,3.009s-3.157,6.153-2.269,7.046.519,3.241.519,3.241-1.991-.079-1.171.81,1.259,5.366,1.259,5.366l8.569,1.329a18.134,18.134,0,0,0,2.065-3.56c1.241-2.588-.12-2.356-1.255-2.685s-.384-1.014,1-1.815.676-2.755.676-2.755-1.931-3.569-1.2-3.824.981-5.167.981-5.167,1.648-5.787,1.352-7.366,1.347-5.3,1.347-5.3l.667-4.463a12.329,12.329,0,0,0,1.894-8.412l.269-6.907s2.519-13.282,3.083-20.06c.352-4.324.528-10.236.606-13.926.046-2.074.065-3.444.065-3.444L15.142,0a25.282,25.282,0,0,1-.736,4.546A67.614,67.614,0,0,1,12.554,11.1a30.11,30.11,0,0,0-1.389,13.634l-.1,9.907s-2.963,6.519-2.477,8.819A18.815,18.815,0,0,1,9,47.625s-6.593,14.2-6.111,18.412S.476,76.782.476,76.782-.418,81.468.244,82.778Z" transform="translate(50.529 292.509)" fill="#575988"/>
    <path id="Path-110" data-name="Path" d="M9.315,1.62,0,0S5.1,5.63,9.315,1.62Z" transform="translate(60.472 337.25)" opacity="0.05"/>
    <path id="Path-111" data-name="Path" d="M.645,0S.182,3.3,2.178,4.63C2.159,4.62-1.429,3.912.645,0Z" transform="translate(61.531 328.171)" opacity="0.1"/>
    <path id="Path-112" data-name="Path" d="M0,0S7.579,6.745,10.444,6.324,0,0,0,0Z" transform="translate(63.157 317.653)" opacity="0.1"/>
    <path id="Path-113" data-name="Path" d="M0,0S5.894,1.583,5.981,3.972,0,0,0,0Z" transform="translate(81.282 342.343)" opacity="0.1"/>
    <path id="Path-114" data-name="Path" d="M1.539,0S9.872,1.889,7.456,2.866A40.355,40.355,0,0,1,1.081,4.546S-1.632,4.593,1.539,0Z" transform="translate(77.285 371.972)" opacity="0.05"/>
    <g id="Group-2" data-name="Group" transform="translate(50.463 296.296)" opacity="0.05">
      <path id="Path-115" data-name="Path" d="M1.562,1.185A1.667,1.667,0,0,0,2.377,0l.079.153S3.168,2.1,1.779,2.931c-.157.088-.306.181-.463.269C1.071,3.144.8,3.1.548,3.023-.582,2.676.173,1.991,1.562,1.185Z" transform="translate(34.35 79.12)"/>
      <path id="Path-116" data-name="Path" d="M.155,1.468C-.067,1.245-.035.7.155,0a3.977,3.977,0,0,1,.4,2.083,1.62,1.62,0,0,0-.4-.616Z" transform="translate(24.952 77.856)"/>
      <path id="Path-117" data-name="Path" d="M.12,0A9.685,9.685,0,0,1,.583,2.644,10.1,10.1,0,0,0,0,.819S.051.5.12,0Z" transform="translate(27.644 43.954)"/>
      <path id="Path-118" data-name="Path" d="M.2.782A3.4,3.4,0,0,1,.146,0C.234.537.289,1.032.322,1.468.285,1.245.243,1.019.2.782Z" transform="translate(8.479 38.694)"/>
      <path id="Path-119" data-name="Path" d="M.219,1.588A4.718,4.718,0,0,1,.071,0,5.356,5.356,0,0,1,.4,2.009,1.958,1.958,0,0,0,.219,1.588Z" transform="translate(26.772 67.685)"/>
      <path id="Path-120" data-name="Path" d="M.46,0a27.963,27.963,0,0,1,.81,4.412L9.84,5.741a17.944,17.944,0,0,0,2.069-3.56c.111-.227.194-.431.269-.616.5.255.69.8-.051,2.338a18.162,18.162,0,0,1-2.065,3.556L1.474,6.139S1.011,1.63.182.745C-.2.306.085.106.46,0Z" transform="translate(24.253 82.62)"/>
      <path id="Path-121" data-name="Path" d="M1.36,69.912S1.1,74.824.379,75.079h0C.05,74.25-.163,73.472.161,73.356c.722-.259.986-5.167.986-5.167S2.8,62.407,2.5,60.824s1.343-5.292,1.343-5.292l.671-4.468a12.329,12.329,0,0,0,1.894-8.412l.264-6.907S9.179,22.44,9.726,15.685c.347-4.324.523-10.236.606-13.926,0-.667.028-1.259.037-1.759l.245.037s0,1.389-.065,3.44c-.079,3.7-.255,9.606-.606,13.931-.546,6.75-3.051,20.06-3.051,20.06l-.269,6.9a12.343,12.343,0,0,1-1.889,8.412L4.059,57.25s-1.644,3.7-1.347,5.3S1.36,69.912,1.36,69.912Z" transform="translate(35.219 0.37)"/>
      <path id="Path-122" data-name="Path" d="M9.6,3.329A8.333,8.333,0,0,0,11.088,0c.847.824-.278,3.866-1.273,5.046S1.333,6.787,0,4.384L.051,3.028C1.9,5.009,8.606,4.5,9.6,3.329Z" transform="translate(1.014 82.213)"/>
      <path id="Path-123" data-name="Path" d="M.026.056A14.384,14.384,0,0,1,.952,2.231l-.042,1A15.551,15.551,0,0,0,.253,1.773,4.292,4.292,0,0,1,.012,0Z" transform="translate(0.071 77.009)"/>
      <path id="Path-124" data-name="Path" d="M.639,10.38A13.921,13.921,0,0,1,0,8.662s1.2.329,3.208-1.875C4.671,5.181,4.87,2.056,4.75,0c.315,1.227.69,6.3-1.319,8.5A5.135,5.135,0,0,1,.639,10.38Z" transform="translate(9.81 68.222)"/>
      <path id="Path-125" data-name="Path" d="M.525,38.722A38.069,38.069,0,0,0,.22,42.94a6.019,6.019,0,0,0-.12-.667C-.211,41.046.3,37,.3,37s.042-2.852.644-3.755a47.309,47.309,0,0,0,2.019-6.125,4.2,4.2,0,0,1,1.1-2.667c1.032-.889,1.815-4.5,1.815-4.5a4.685,4.685,0,0,0,.829-3.032,6.234,6.234,0,0,1,1.352-3.657L10.78,5.681,13.28,0l1.153,3.4V4.481L13.507,1.7l-2.5,5.676-2.718,7.6a6.171,6.171,0,0,0-1.352,3.657,4.657,4.657,0,0,1-.829,3.032s-.782,3.606-1.815,4.491a4.179,4.179,0,0,0-1.1,2.667,47.568,47.568,0,0,1-2.019,6.13C.576,35.861.525,38.722.525,38.722Z" transform="translate(14.234 24.231)"/>
    </g>
    <path id="Path-126" data-name="Path" d="M.089,6.454l.435,2.62L.45,10.232l-.056.852,2.958.421.356-.6h0A27.1,27.1,0,0,1,6.158,7.265c.565-.44,1.824-7.63.63-7.25A3.125,3.125,0,0,0,5.075,1.45S-.786,1.894.089,6.454Z" transform="translate(64.193 221.583)" fill="#ffcdd3"/>
    <path id="Path-127" data-name="Path" d="M0,1.143l2.958.421.356-.6h0A2.625,2.625,0,0,0,.074.3Z" transform="translate(64.588 231.524)" opacity="0.1"/>
    <path id="Path-128" data-name="Path" d="M0,2.24,3.884,3.3l.1-.583.282-1.56A2.7,2.7,0,0,0,.5.5l-.222.792Z" transform="translate(63.782 231.806)" fill="#dce6f2"/>
    <path id="Path-129" data-name="Path" d="M0,12.311l4.093,2.407s.171-.329.412-.778c.431-.819,1.069-2.051,1.25-2.5.273-.681,2.051-1.491,2.051-1.491,4.542-4.014-.537-7.806-.537-7.806C4.722-3.513,1.361,3.806,1.361,3.806s-.579,3.9-.287,4.167.25,1.347.25,1.347a15.741,15.741,0,0,0-1.1,2.352C.079,12.056,0,12.311,0,12.311Z" transform="translate(127.458 218.458)" fill="#ffcdd3"/>
    <path id="Path-130" data-name="Path" d="M0,.613,4.093,3.021s.171-.329.412-.778C3.931,1.729,1.9-.072,1.213,0A4.968,4.968,0,0,1,.222,0C.079.359,0,.613,0,.613Z" transform="translate(127.458 230.155)" opacity="0.1"/>
    <path id="Path-131" data-name="Path" d="M0,1.639l4.63,2.5.13-1.009.093-.694S2.222,0,1.417.051A4.37,4.37,0,0,1,.185,0L.1.843Z" transform="translate(126.981 230.366)" fill="#dce6f2"/>
    <path id="Path-132" data-name="Path" d="M0,15.725s20.4,3.1,16.62,1.713c-2.634-.972-3.63-2.708-3.778-4.6a10.75,10.75,0,0,1,.926-4.713A20.657,20.657,0,0,1,15.745,4.5S.412-4.719,3.245,3.235A12.565,12.565,0,0,1,3.991,6.98a10.556,10.556,0,0,1-.546,3.741,11.2,11.2,0,0,1-3.444,5Z" transform="translate(75.009 230.015)" fill="#ffcdd3"/>
    <path id="Path-133" data-name="Path" d="M.35,3.235A12.565,12.565,0,0,1,1.1,6.98C2.521,8.272,4.141,8.253,6.22,8.332c1.6.065,3.347.519,4.63-.2A20.657,20.657,0,0,1,12.827,4.5S-2.484-4.719.35,3.235Z" transform="translate(77.923 230.015)" opacity="0.1"/>
    <circle id="Oval-8" data-name="Oval" cx="8.477" cy="8.477" r="8.477" transform="translate(76.25 221.954)" fill="#ffcdd3"/>
    <path id="Path-134" data-name="Path" d="M0,5.776s20.4,3.1,16.62,1.713c-2.634-.972-3.63-2.708-3.778-4.6A11.269,11.269,0,0,0,8.546.4a6.171,6.171,0,0,0-3.7-.2A5.093,5.093,0,0,0,3.454.771,11.2,11.2,0,0,1,0,5.776Z" transform="translate(75.009 239.965)" opacity="0.1"/>
    <path id="Path-135" data-name="Path" d="M0,1.055l3.884,1.06.1-.583A3.458,3.458,0,0,0,.282.1Z" transform="translate(63.782 232.991)" opacity="0.1"/>
    <path id="Path-136" data-name="Path" d="M0,.773l4.63,2.5.13-1.009A35.056,35.056,0,0,0,.083,0Z" transform="translate(126.981 231.231)" opacity="0.1"/>
    <path id="Path-137" data-name="Path" d="M0,4.546c7.87,1.56,19.12,3.625,20.931,3.148,1.5-.394,6.25-.162,10.375.139.046-2.074.065-3.444.065-3.444L.736,0A25.282,25.282,0,0,1,0,4.546Z" transform="translate(64.917 292.509)" opacity="0.1"/>
    <path id="Path-138" data-name="Path" d="M0,63.4s25.954,5.491,28.792,4.745,17.2.731,17.2.731c6.31,4.593,3.852-1.917,3.852-1.917a15.668,15.668,0,0,0,0-6.06A37.037,37.037,0,0,1,49,54.806s.31-4.269-.435-5.292-1.389-8.185-1.389-8.185-.523-4.866-.412-5.931-.056-4.069-.056-4.069l-.736-5.019c5.366-.5,21.981-9.847,21.981-9.847.926-3.315,7.264-10.917,7.264-10.917a8.222,8.222,0,0,1,.574-1.9C76.259,2.523,69.949,0,69.949,0s-5,5.653-6.042,7.181A31.424,31.424,0,0,1,59.319,11.5a3.477,3.477,0,0,0-1.574.144h-.083a12.718,12.718,0,0,0-3.241,1.708,6.2,6.2,0,0,0-4.407,1.468s-2.9-.537-3.417-.06-2.991-.116-2.991-.116-2.315-5.361-3.986-3.894-8.644,1.13-8.644,1.13c-.875-1.269-3.1-2.236-4.486-2.745a6.134,6.134,0,0,0-3.7-.2,4.81,4.81,0,0,0-1.5.653l-4.37,3.963s-1.153-1.611-1-1.963-1.389-.694-1.389-.694-2.042-.722-2.815-.963-1.528.574-1.593.648a8.231,8.231,0,0,0,.463-3.116,3.579,3.579,0,0,1,.949-2.532C9.287-1.3,3.468,3.616,3.468,3.616s-.773,3.319-.25,4.63-.722,3.963-.611,4.681S2.25,14.838,2.2,16.19a20.084,20.084,0,0,0,.926,5.093c.366,1.148,3.7,3.852,3.7,3.852s.06,4.065,1.463,6.481.171,10.417.171,10.417S6.8,48.241,4.94,50.167,0,63.4,0,63.4Z" transform="translate(57.079 231.491)" fill="#656691"/>
    <path id="Path-139" data-name="Path" d="M.124,4.245S1,1.931,1.717,1.741a16.4,16.4,0,0,0,2.1-.847L3.393,0S.689.634.235,1.389.124,4.245.124,4.245Z" transform="translate(96.844 245.264)" opacity="0.1"/>
    <path id="Path-140" data-name="Path" d="M0,1.736c.116.718,6.426,1.6,6.426,1.6L3.347,0H3.269A12.718,12.718,0,0,0,0,1.736Z" transform="translate(111.477 243.13)" opacity="0.1"/>
    <circle id="Oval-9" data-name="Oval" cx="0.569" cy="0.569" r="0.569" transform="translate(129.616 235.227)" fill="#575988"/>
    <circle id="Oval-10" data-name="Oval" cx="0.569" cy="0.569" r="0.569" transform="translate(128.843 236.338)" fill="#575988"/>
    <circle id="Oval-11" data-name="Oval" cx="0.569" cy="0.569" r="0.569" transform="translate(128.088 237.361)" fill="#575988"/>
    <circle id="Oval-12" data-name="Oval" cx="0.569" cy="0.569" r="0.569" transform="translate(127.301 238.472)" fill="#575988"/>
    <circle id="Oval-13" data-name="Oval" cx="0.463" cy="0.463" r="0.463" transform="translate(60.301 235.935)" fill="#575988"/>
    <circle id="Oval-14" data-name="Oval" cx="0.463" cy="0.463" r="0.463" transform="translate(60.19 236.981)" fill="#575988"/>
    <circle id="Oval-15" data-name="Oval" cx="0.463" cy="0.463" r="0.463" transform="translate(60.083 238.028)" fill="#575988"/>
    <path id="Path-141" data-name="Path" d="M28.769,0C28.838-.078,12.009,19.57,0,7.38,0,7.38,19.583,10.806,28.769,0Z" transform="translate(67.421 268.801)" opacity="0.1"/>
    <path id="Path-142" data-name="Path" d="M10.838,0S1.222-.106.111,2.616L0,5.491a1.852,1.852,0,0,0,1.787.069c.991-.486,6.907-3.213,8.9-1.713Z" transform="translate(94.167 279.694)" opacity="0.1"/>
    <path id="Path-143" data-name="Path" d="M10.361,0S1.171-.1.106,2.5L0,5.237A1.759,1.759,0,0,0,1.708,5.3c.926-.463,6.606-3.06,8.514-1.634Z" transform="translate(94.463 279.685)" fill="#656691"/>
    <path id="Path-144" data-name="Path" d="M10.023,0A31.2,31.2,0,0,1,6.056,6.245,25.032,25.032,0,0,1,0,11.653S9.81,1.3,10.023,0Z" transform="translate(90.542 258.639)" opacity="0.1"/>
    <path id="Path-145" data-name="Path" d="M6.088,0S4.236,6.856,0,9.046Z" transform="translate(98.046 247.602)" opacity="0.1"/>
    <path id="Path-146" data-name="Path" d="M5.653,0C5.7-.123,6.866,5.53,0,8.368,0,8.368,2.9,7.5,5.653,0Z" transform="translate(100.912 248.391)" opacity="0.1"/>
    <path id="Path-147" data-name="Path" d="M4.384.011A48.2,48.2,0,0,0,0,3.048C.023,3.048,2.361-.211,4.384.011Z" transform="translate(60.426 242.133)" opacity="0.1"/>
    <path id="Path-148" data-name="Path" d="M13.1,19.306a1.819,1.819,0,0,1-.708,1.12,1.745,1.745,0,0,1-.806.144c-2.588.065-5.282.074-7.63-1.014a2.88,2.88,0,0,1-1.134-.815,4.67,4.67,0,0,1-.606-1.9A27.544,27.544,0,0,0,.79,13.181,12.037,12.037,0,0,1,.2,6.7,4.338,4.338,0,0,1,.919,4.848c.722-.949,1.986-1.3,2.921-2.042S5.405.894,6.489.348a4.888,4.888,0,0,1,3.2-.157,16.815,16.815,0,0,1,5.88,2.468,2.959,2.959,0,0,0,1.968.755,2.741,2.741,0,0,0,1.509-1.065,7.87,7.87,0,0,1,.491,3.7,1.6,1.6,0,0,0,0,.556,1.69,1.69,0,0,0,.37.606c.606.764.963,1.949.306,2.671-.287.315-.718.463-1,.8-.5.574-.375,1.435-.394,2.2a1.157,1.157,0,0,1-.213.745,1.106,1.106,0,0,1-1.056.208,2.88,2.88,0,0,0-1.111-.148,1.852,1.852,0,0,0-1,.7A13.124,13.124,0,0,0,13.1,19.306Z" transform="translate(73.622 218.893)" fill="#2d293d"/>
    <g id="Group-3" data-name="Group" transform="translate(75.926 220.833)" opacity="0.1">
      <path id="Path-149" data-name="Path" d="M.079,10.565a2.843,2.843,0,0,0,1.134.819c2.347,1.088,5.042,1.074,7.63,1.014a1.69,1.69,0,0,0,.806-.148,1.8,1.8,0,0,0,.708-1.116A13.164,13.164,0,0,1,12.708,6.2a1.852,1.852,0,0,1,1-.708,2.972,2.972,0,0,1,1.111.148,1.093,1.093,0,0,0,1.056-.208,1.139,1.139,0,0,0,.213-.741,3.278,3.278,0,0,1,.394-2.2c.278-.319.708-.463,1-.8A1.676,1.676,0,0,0,17.7,0a1.939,1.939,0,0,1,.032,2.273c-.287.315-.713.463-1,.8-.5.574-.37,1.435-.389,2.2a1.134,1.134,0,0,1-.218.745,1.1,1.1,0,0,1-1.056.208,2.856,2.856,0,0,0-1.106-.148,1.852,1.852,0,0,0-1,.708,13.286,13.286,0,0,0-2.352,4.926,1.338,1.338,0,0,1-1.509,1.269c-2.588.06-5.282.069-7.634-1.019a2.9,2.9,0,0,1-1.134-.815,2.222,2.222,0,0,1-.338-.7.852.852,0,0,0,.079.116Z" transform="translate(0.185 5.569)"/>
      <path id="Path-150" data-name="Path" d="M.519,4.153A1.144,1.144,0,0,1,.278,3.69a1.6,1.6,0,0,1,0-.556A7.894,7.894,0,0,0,0,.051L.046,0a7.81,7.81,0,0,1,.5,3.7,2.514,2.514,0,0,0-.023.449Z" transform="translate(16.699 0.273)"/>
    </g>
    <path id="Path-151" data-name="Path" d="M11.528.634S.88,1.63,0,0" transform="translate(76.505 242.759)" opacity="0.1"/>
    <path id="Path-152" data-name="Path" d="M7.259.006S1.375-.211,0,1.941" transform="translate(60.37 238.216)" opacity="0.1"/>
  </g>
</svg>
